<svg width="126" height="20" viewBox="0 0 126 20" fill="none" xmlns="http://www.w3.org/2000/svg">
<path d="M0 17.6667V2.66479H5.698C6.93 2.66479 7.99333 3.05591 8.888 3.83813C9.7973 4.60639 10.252 5.57718 10.252 6.75051C10.252 7.46289 10.054 8.09146 9.658 8.63622C9.27667 9.18098 8.76333 9.59308 8.118 9.87241V9.95622C8.89533 10.2077 9.5333 10.6407 10.032 11.2553C10.5307 11.8698 10.78 12.5822 10.78 13.3924C10.78 14.6217 10.3033 15.6413 9.35 16.4515C8.41133 17.2617 7.29667 17.6667 6.006 17.6667H0ZM2.024 9.09718H5.698C6.46067 9.09718 7.06933 8.85975 7.524 8.38479C7.99333 7.89591 8.228 7.36511 8.228 6.79241C8.228 6.21972 8.00067 5.69591 7.546 5.22099C7.106 4.74606 6.51933 4.5086 5.786 4.5086H2.024V9.09718ZM2.024 15.8229H6.094C6.87133 15.8229 7.502 15.5645 7.986 15.0477C8.47 14.5308 8.712 13.9651 8.712 13.3505C8.712 12.7359 8.46267 12.1772 7.964 11.6743C7.46533 11.1575 6.81267 10.8991 6.006 10.8991H2.024V15.8229ZM16.1205 18.0019C14.9765 18.0019 14.0158 17.6877 13.2385 17.0591C12.4758 16.4305 12.0945 15.5994 12.0945 14.5657C12.0945 13.4483 12.5492 12.5753 13.4585 11.9467C14.3678 11.3041 15.4898 10.9829 16.8245 10.9829C18.0125 10.9829 18.9878 11.1924 19.7505 11.6115V11.3181C19.7505 10.5638 19.4792 9.96318 18.9365 9.51622C18.3938 9.05527 17.7265 8.82479 16.9345 8.82479C16.3478 8.82479 15.8125 8.95746 15.3285 9.22289C14.8592 9.48832 14.5365 9.85146 14.3605 10.3124L12.5125 9.55813C12.7618 8.94356 13.2532 8.37784 13.9865 7.86099C14.7198 7.3302 15.6878 7.06479 16.8905 7.06479C18.2692 7.06479 19.4132 7.44892 20.3225 8.21718C21.2318 8.98546 21.6865 10.0679 21.6865 11.4648V17.6667H19.7505V16.2419H19.6625C18.8558 17.4153 17.6752 18.0019 16.1205 18.0019ZM16.4505 16.2419C17.2865 16.2419 18.0418 15.9486 18.7165 15.3619C19.4058 14.7613 19.7505 14.0559 19.7505 13.2457C19.1785 12.7988 18.3205 12.5753 17.1765 12.5753C16.1938 12.5753 15.4532 12.7778 14.9545 13.1829C14.4558 13.5879 14.2065 14.0629 14.2065 14.6077C14.2065 15.1105 14.4338 15.5086 14.8885 15.8019C15.3432 16.0953 15.8638 16.2419 16.4505 16.2419ZM25.9923 17.6667H23.9683V7.40003H25.9043V9.07622H25.9923C26.1976 8.51746 26.6156 8.05654 27.2463 7.69337C27.8916 7.33019 28.515 7.1486 29.1163 7.1486C29.7176 7.1486 30.2236 7.23241 30.6343 7.40003L29.8643 9.20194C29.6003 9.10413 29.241 9.05527 28.7863 9.05527C28.053 9.05527 27.4003 9.3346 26.8283 9.89337C26.271 10.4381 25.9923 11.1575 25.9923 12.0515V17.6667ZM35.8045 18.0019C34.4112 18.0019 33.2085 17.4781 32.1965 16.4305C31.1845 15.3829 30.6785 14.0838 30.6785 12.5334C30.6785 10.9829 31.1845 9.68384 32.1965 8.63622C33.2085 7.5886 34.4112 7.06479 35.8045 7.06479C36.6258 7.06479 37.3592 7.23241 38.0045 7.56765C38.6645 7.90289 39.1558 8.32194 39.4785 8.82479H39.5665L39.4785 7.40003V2.66479H41.5025V17.6667H39.5665V16.2419H39.4785C39.1558 16.7448 38.6645 17.1638 38.0045 17.4991C37.3592 17.8343 36.6258 18.0019 35.8045 18.0019ZM36.1345 16.2419C37.0878 16.2419 37.8945 15.9067 38.5545 15.2362C39.2292 14.5657 39.5665 13.6648 39.5665 12.5334C39.5665 11.4019 39.2292 10.501 38.5545 9.83051C37.8945 9.16003 37.0878 8.82479 36.1345 8.82479C35.1958 8.82479 34.3892 9.16698 33.7145 9.85146C33.0398 10.5219 32.7025 11.4159 32.7025 12.5334C32.7025 13.6508 33.0398 14.5517 33.7145 15.2362C34.3892 15.9067 35.1958 16.2419 36.1345 16.2419Z" fill="#E8EAED"/>
<path d="M54.7234 14.3333V6.15042H60.2314V7.33899H56.0314V9.49899H59.8594V10.6876H56.0314V13.1447H60.2314V14.3333H54.7234ZM60.8387 14.3333L63.0467 11.3733L60.8507 8.50471H62.3507L63.8027 10.4361H63.8387L65.2307 8.50471H66.7787L64.5467 11.3733L66.7787 14.3333H65.2907L63.8147 12.3333H63.7907L62.3147 14.3333H60.8387ZM67.7341 16.8018V8.50471H68.9341V9.25899H69.0061C69.1661 9.00756 69.4061 8.79042 69.7261 8.60756C70.0541 8.41709 70.4421 8.32185 70.8901 8.32185C71.4181 8.32185 71.8861 8.44756 72.2941 8.69899C72.7101 8.9428 73.0341 9.29709 73.2661 9.76185C73.4981 10.219 73.6141 10.7714 73.6141 11.419C73.6141 12.059 73.4981 12.6114 73.2661 13.0761C73.0341 13.5409 72.7101 13.899 72.2941 14.1504C71.8861 14.3942 71.4181 14.5161 70.8901 14.5161C70.4261 14.5161 70.0341 14.4247 69.7141 14.2418C69.3941 14.059 69.1581 13.8457 69.0061 13.6019H68.9341L69.0061 14.4361V16.8018H67.7341ZM70.6381 13.3847C71.1261 13.3847 71.5301 13.2209 71.8501 12.8933C72.1781 12.558 72.3421 12.0666 72.3421 11.419C72.3421 10.7714 72.1781 10.2838 71.8501 9.95614C71.5301 9.6209 71.1261 9.45328 70.6381 9.45328C70.1501 9.45328 69.7421 9.6209 69.4141 9.95614C69.0941 10.2838 68.9341 10.7714 68.9341 11.419C68.9341 12.0666 69.0941 12.558 69.4141 12.8933C69.7421 13.2209 70.1501 13.3847 70.6381 13.3847ZM77.5094 14.5161C76.8934 14.5161 76.3614 14.3866 75.9134 14.1276C75.4734 13.8685 75.1294 13.5066 74.8814 13.0419C74.6414 12.5771 74.5214 12.0399 74.5214 11.4304C74.5214 10.8133 74.6454 10.2723 74.8934 9.80756C75.1494 9.33518 75.5014 8.96947 75.9494 8.71042C76.4054 8.45137 76.9254 8.32185 77.5094 8.32185C78.4294 8.32185 79.1294 8.57328 79.6094 9.07614C80.0894 9.57137 80.3294 10.2457 80.3294 11.099C80.3294 11.3047 80.3174 11.499 80.2934 11.6819H75.7694C75.8094 12.2457 75.9894 12.6761 76.3094 12.9733C76.6374 13.2704 77.0534 13.419 77.5574 13.419C77.9654 13.419 78.2894 13.3314 78.5294 13.1561C78.7694 12.9733 78.9414 12.7485 79.0454 12.4819L80.1614 12.7676C79.9934 13.2933 79.6854 13.7161 79.2374 14.0361C78.7974 14.3561 78.2214 14.5161 77.5094 14.5161ZM77.5094 9.35042C77.0854 9.35042 76.7254 9.46852 76.4294 9.70471C76.1334 9.9409 75.9334 10.2952 75.8294 10.7676H79.0694C79.0454 10.3409 78.9014 9.99804 78.6374 9.73899C78.3734 9.47995 77.9974 9.35042 77.5094 9.35042ZM81.7167 14.3333V8.50471H82.9287V9.48756H83.0007C83.1767 9.12185 83.4327 8.83614 83.7687 8.63042C84.1127 8.42471 84.5207 8.32185 84.9927 8.32185C85.2247 8.32185 85.4407 8.3409 85.6407 8.37899C85.8487 8.40947 86.0167 8.4628 86.1447 8.53899V9.81899C85.9527 9.71995 85.7367 9.63995 85.4967 9.57899C85.2647 9.51804 85.0087 9.48756 84.7287 9.48756C84.1847 9.48756 83.7607 9.66661 83.4567 10.0247C83.1527 10.3752 83.0007 10.8171 83.0007 11.3504V14.3333H81.7167ZM89.296 7.40756C89.016 7.40756 88.78 7.31614 88.588 7.13328C88.396 6.95042 88.3 6.72566 88.3 6.45899C88.3 6.19995 88.396 5.97899 88.588 5.79614C88.78 5.61328 89.016 5.52185 89.296 5.52185C89.576 5.52185 89.812 5.61328 90.004 5.79614C90.196 5.97899 90.292 6.19995 90.292 6.45899C90.292 6.72566 90.196 6.95042 90.004 7.13328C89.812 7.31614 89.576 7.40756 89.296 7.40756ZM86.548 14.3333V13.2247H88.648V9.61328H86.908V8.50471H89.932V13.2247H92.044V14.3333H86.548ZM92.7833 14.3333V8.50471H93.9353V9.00756H94.0073C94.1033 8.80185 94.2553 8.63804 94.4633 8.51614C94.6793 8.38661 94.9233 8.32185 95.1953 8.32185C95.5233 8.32185 95.7713 8.39042 95.9393 8.52757C96.1153 8.65709 96.2433 8.81328 96.3233 8.99614C96.4193 8.8209 96.5833 8.66471 96.8153 8.52757C97.0473 8.39042 97.3233 8.32185 97.6433 8.32185C98.1073 8.32185 98.4673 8.4628 98.7233 8.74471C98.9873 9.01899 99.1193 9.43042 99.1193 9.97899V14.3333H97.9073V10.0704C97.9073 9.86471 97.8513 9.7009 97.7393 9.57899C97.6353 9.45709 97.4873 9.39614 97.2953 9.39614C97.0633 9.39614 96.8833 9.47233 96.7553 9.62471C96.6353 9.76947 96.5753 9.96376 96.5753 10.2076V14.3333H95.3513V10.0819C95.3513 9.87614 95.2993 9.71233 95.1953 9.59042C95.0993 9.4609 94.9433 9.39614 94.7273 9.39614C94.5193 9.39614 94.3473 9.47233 94.2113 9.62471C94.0753 9.77709 94.0073 9.97518 94.0073 10.219V14.3333H92.7833ZM103.231 14.5161C102.615 14.5161 102.083 14.3866 101.635 14.1276C101.195 13.8685 100.851 13.5066 100.603 13.0419C100.363 12.5771 100.243 12.0399 100.243 11.4304C100.243 10.8133 100.367 10.2723 100.615 9.80756C100.871 9.33518 101.223 8.96947 101.671 8.71042C102.127 8.45137 102.647 8.32185 103.231 8.32185C104.151 8.32185 104.851 8.57328 105.331 9.07614C105.811 9.57137 106.051 10.2457 106.051 11.099C106.051 11.3047 106.039 11.499 106.015 11.6819H101.491C101.531 12.2457 101.711 12.6761 102.031 12.9733C102.359 13.2704 102.775 13.419 103.279 13.419C103.687 13.419 104.011 13.3314 104.251 13.1561C104.491 12.9733 104.663 12.7485 104.767 12.4819L105.883 12.7676C105.715 13.2933 105.407 13.7161 104.959 14.0361C104.519 14.3561 103.943 14.5161 103.231 14.5161ZM103.231 9.35042C102.807 9.35042 102.447 9.46852 102.151 9.70471C101.855 9.9409 101.655 10.2952 101.551 10.7676H104.791C104.767 10.3409 104.623 9.99804 104.359 9.73899C104.095 9.47995 103.719 9.35042 103.231 9.35042ZM107.342 14.3333V8.50471H108.554V9.23614H108.626C108.786 8.96185 109.03 8.7409 109.358 8.57328C109.694 8.40566 110.062 8.32185 110.462 8.32185C111.15 8.32185 111.682 8.51995 112.058 8.91614C112.434 9.31233 112.622 9.85709 112.622 10.5504V14.3333H111.35V10.7104C111.35 10.2838 111.234 9.96756 111.002 9.76185C110.77 9.55614 110.47 9.45328 110.102 9.45328C109.654 9.45328 109.294 9.60947 109.022 9.92185C108.758 10.2342 108.626 10.6076 108.626 11.0419V14.3333H107.342ZM116.601 14.5047C115.969 14.5047 115.461 14.3295 115.077 13.979C114.693 13.6209 114.501 13.1104 114.501 12.4476V9.56757H113.097V8.50471H114.501V6.90471H115.785V8.50471H118.029V9.56757H115.785V12.3333C115.785 12.6609 115.873 12.9161 116.049 13.099C116.225 13.2742 116.489 13.3619 116.841 13.3619C117.145 13.3619 117.441 13.2857 117.729 13.1333L118.101 14.1619C117.893 14.2761 117.677 14.3599 117.453 14.4133C117.237 14.4742 116.953 14.5047 116.601 14.5047Z" fill="#A8C7FA"/>
<path d="M119.416 1H53.416C50.3784 1 47.916 3.34518 47.916 6.2381V13.8571C47.916 16.7501 50.3784 19.0952 53.416 19.0952H119.416C122.454 19.0952 124.916 16.7501 124.916 13.8571V6.2381C124.916 3.34518 122.454 1 119.416 1Z" stroke="#A8C7FA"/>
</svg>
