<svg width="14" height="18" viewBox="0 0 14 18" fill="none" xmlns="http://www.w3.org/2000/svg">
<path d="M11.8583 8.54166C11.8583 11.2917 9.52998 13.2167 6.99998 13.2167C4.46998 13.2167 2.14165 11.2917 2.14165 8.54166H0.583313C0.583313 11.6675 3.07665 14.2525 6.08331 14.7017V17.7083H7.91665V14.7017C10.9233 14.2525 13.4166 11.6675 13.4166 8.54166M5.89998 2.94999C5.89998 2.34499 6.39498 1.84999 6.99998 1.84999C7.60498 1.84999 8.09998 2.34499 8.09998 2.94999L8.09081 8.63332C8.09081 9.23832 7.60498 9.73332 6.99998 9.73332C6.39498 9.73332 5.89998 9.23832 5.89998 8.63332M6.99998 11.2917C7.72933 11.2917 8.4288 11.0019 8.94452 10.4862C9.46025 9.97048 9.74998 9.271 9.74998 8.54166V3.04166C9.74998 2.31231 9.46025 1.61284 8.94452 1.09711C8.4288 0.581388 7.72933 0.291656 6.99998 0.291656C6.27063 0.291656 5.57116 0.581388 5.05544 1.09711C4.53971 1.61284 4.24998 2.31231 4.24998 3.04166V8.54166C4.24998 9.271 4.53971 9.97048 5.05544 10.4862C5.57116 11.0019 6.27063 11.2917 6.99998 11.2917Z" fill="#414042"/>
</svg>
